<svg xmlns="http://www.w3.org/2000/svg" width="81" height="80" viewBox="0 0 81 80" fill="none">
  <path fill-rule="evenodd" clip-rule="evenodd" d="M40.25 8.7998C49.05 8.7998 56.25 14.7998 57.45 22.7998C61.05 23.9998 63.85 27.1998 63.85 31.1998C63.85 35.9998 59.85 39.9998 54.65 39.9998H25.85C20.65 39.9998 16.65 35.9998 16.65 31.1998C16.65 27.5998 19.05 23.9998 23.05 22.7998C24.25 14.7998 31.45 8.7998 40.25 8.7998ZM47.85 20.7998C48.65 21.5998 49.45 21.5998 50.25 20.7998C51.05 19.9998 51.05 19.1998 50.25 18.3998C44.25 12.3998 35.05 12.3998 29.05 18.3998C28.25 18.7998 28.25 19.9998 29.05 20.7998C29.85 21.5998 30.65 21.5998 31.45 20.7998C35.85 15.9998 43.45 15.9998 47.85 20.7998Z" fill="#A1FF82"/>
  <path d="M27.45 44L36.65 69.6C37.05 70.8 38.65 72 40.25 72C41.85 72 43.45 70.8 43.85 69.6L53.05 44H27.45Z" fill="#A1FF82"/>
  <path fill-rule="evenodd" clip-rule="evenodd" d="M67.45 15.2001L15.45 67.6001L13.85 66.0001L65.85 13.6001L67.45 15.2001Z" fill="#A1FF82" stroke="#A1FF82" stroke-width="2" stroke-miterlimit="10"/>
  <path fill-rule="evenodd" clip-rule="evenodd" d="M40.25 74.7998C59.45 74.7998 75.05 59.1998 75.05 39.9998C75.05 20.7998 59.05 5.1998 40.25 5.1998C21.45 5.1998 5.44999 20.7998 5.44999 39.9998C5.44999 59.1998 21.05 74.7998 40.25 74.7998ZM40.25 77.5998C60.65 77.5998 77.45 60.7998 77.45 40.3998C77.45 19.9998 60.65 2.7998 40.25 2.7998C19.85 2.7998 3.04999 19.5998 3.04999 39.9998C3.04999 60.3998 19.45 77.5998 40.25 77.5998Z" fill="#A1FF82" stroke="#A1FF82" stroke-width="2" stroke-miterlimit="10"/>
</svg>