<svg xmlns="http://www.w3.org/2000/svg" width="81" height="80" viewBox="0 0 81 80" fill="none">
  <path fill-rule="evenodd" clip-rule="evenodd" d="M38.25 10.4001C39.45 10.0001 40.65 10.0001 41.85 10.4001L66.65 17.6001V35.2001C66.65 51.2001 55.45 66.4001 39.85 70.0001C24.65 66.4001 13.05 51.2001 13.05 35.2001V17.6001L38.25 10.4001ZM25.45 26.8001C25.45 26.0001 24.65 25.2001 23.85 25.2001C23.05 25.2001 22.25 26.0001 22.25 26.8001C22.25 34.4001 22.25 39.6001 25.05 46.0001C29.05 55.6001 36.65 58.4001 40.65 58.4001C41.45 58.4001 42.25 57.6001 42.25 56.8001C42.25 56.0001 41.45 55.2001 40.65 55.2001C38.25 55.2001 31.85 53.2001 28.25 44.8001C25.45 39.2001 25.45 34.4001 25.45 26.8001Z" fill="#A1FF82"/>
</svg>