<svg xmlns="http://www.w3.org/2000/svg" width="81" height="80" viewBox="0 0 81 80" fill="none">
  <g clip-path="url(#clip0_67_196)">
    <path fill-rule="evenodd" clip-rule="evenodd" d="M70.2167 13.2002L14.0833 69.3335L12.2167 67.4668L68.35 11.3335L70.2167 13.2002Z" fill="#A1FF82" stroke="#A1FF82" stroke-miterlimit="10"/>
    <path fill-rule="evenodd" clip-rule="evenodd" d="M40.75 76.1333C60.8833 76.1333 77.2833 59.8667 77.2833 39.8667C77.2833 19.8667 61.0167 3.73333 40.75 3.73333C20.4833 3.73333 4.35 19.8667 4.35 39.8667C4.35 59.8667 20.6167 76.1333 40.75 76.1333ZM40.75 80C62.8833 80 80.75 62.1333 80.75 40C80.75 17.8667 62.8833 0 40.75 0C18.6167 0 0.75 17.8667 0.75 40C0.75 62.1333 18.6167 80 40.75 80Z" fill="#A1FF82"/>
    <path d="M59.2833 31.5998L59.15 30.6665L58.2167 30.5332C54.4833 29.9998 50.6167 30.7998 47.55 32.6665C47.95 31.3332 48.0833 29.8665 48.0833 28.5332C48.0833 23.3332 45.6833 18.3998 41.55 15.1998L40.75 14.6665L40.0833 15.1998C35.95 18.3998 33.55 23.1998 33.55 28.5332C33.55 29.9998 33.6833 31.3332 34.0833 32.6665C30.8833 30.7998 27.15 29.9998 23.4167 30.5332L22.35 30.6665L22.2167 31.5998C21.55 36.6665 23.0167 41.5998 26.35 45.1998C25.2833 45.1998 24.2167 45.1998 23.15 45.3332L22.2167 45.4665L22.0833 46.3998C21.4167 51.5998 23.0167 56.7998 26.75 60.5332C29.8167 63.7332 33.95 65.3332 38.35 65.3332C39.15 65.3332 39.95 65.3332 40.75 65.1998C41.55 65.3332 42.35 65.3332 43.15 65.3332C47.4167 65.3332 51.55 63.5998 54.75 60.5332C58.4833 56.7998 60.0833 51.7332 59.4167 46.3998L59.2833 45.4665L58.2167 45.3332C57.15 45.1998 56.0833 45.1998 55.0167 45.1998C58.4833 41.4665 59.95 36.5332 59.2833 31.5998ZM40.75 17.7332C43.8167 20.3998 45.55 24.2665 45.55 28.3998C45.55 31.4665 44.6167 34.3998 42.8833 36.7998L42.75 36.9332C42.2167 37.7332 41.55 38.3998 40.75 39.0665C39.95 38.3998 39.2833 37.7332 38.75 36.9332C38.75 36.7998 38.6167 36.7998 38.6167 36.6665C36.8833 34.2665 35.95 31.3332 35.95 28.2665C35.95 24.3998 37.6833 20.5332 40.75 17.7332ZM24.6167 32.7998C28.75 32.5332 32.6167 33.9998 35.55 36.9332C35.95 37.3332 36.35 37.8665 36.75 38.2665C38.8833 41.0665 39.8167 44.3998 39.55 47.8665C35.4167 48.1332 31.55 46.6665 28.6167 43.7332C25.6833 40.9332 24.2167 36.9332 24.6167 32.7998ZM39.55 62.7998C35.4167 63.0665 31.55 61.5998 28.6167 58.6665C25.6833 55.7332 24.2167 51.7332 24.6167 47.5998C28.75 47.3332 32.6167 48.7998 35.55 51.7332C38.35 54.6665 39.8167 58.6665 39.55 62.7998ZM37.55 50.5332C37.8167 50.5332 38.0833 50.5332 38.35 50.5332C39.15 50.5332 39.95 50.5332 40.75 50.3998C41.55 50.5332 42.35 50.5332 43.15 50.5332C43.4167 50.5332 43.6833 50.5332 43.95 50.5332C42.6167 51.9998 41.55 53.7332 40.75 55.4665C39.95 53.5998 39.0167 51.9998 37.55 50.5332ZM56.8833 47.7332C57.15 51.8665 55.6833 55.8665 52.8833 58.7998C49.95 61.7332 46.0833 63.1998 41.95 62.9332C41.6833 58.7998 43.15 54.7998 45.95 51.8665C48.8833 48.7998 52.8833 47.3332 56.8833 47.7332ZM52.8833 43.8665C49.95 46.7998 46.0833 48.2665 41.95 47.9998C41.6833 44.5332 42.75 41.0665 44.75 38.3998C45.15 37.8665 45.55 37.4665 45.95 37.0665C48.8833 34.1332 52.75 32.6665 56.8833 32.9332C57.2833 36.9332 55.8167 40.9332 52.8833 43.8665Z" fill="#A1FF82" stroke="#A1FF82" stroke-width="0.666667" stroke-miterlimit="10"/>
  </g>
  <defs>
    <clipPath id="clip0_67_196">
      <rect width="80" height="80" fill="white" transform="translate(0.75)"/>
    </clipPath>
  </defs>
</svg>