<svg xmlns="http://www.w3.org/2000/svg" width="81" height="80" viewBox="0 0 81 80" fill="none">
  <path d="M59.15 23.7335C59.15 23.7335 38.2167 23.7335 36.6167 23.7335C35.2833 23.7335 34.2167 24.8002 34.2167 26.2668C34.2167 27.8668 34.2167 59.7335 34.2167 60.2668C34.2167 61.4668 33.15 62.4002 32.0833 62.2668C31.0167 62.2668 30.0833 61.3335 30.0833 60.1335C30.0833 59.8668 30.0833 21.4668 30.0833 21.4668C30.0833 20.8002 30.35 20.2668 30.75 20.0002C31.15 19.6002 31.55 19.4668 32.0833 19.4668H58.2167C62.35 19.4668 65.55 16.0002 65.55 11.8668C65.55 8.00016 63.0167 5.3335 59.2833 5.3335H35.55C25.0167 5.3335 16.4833 14.2668 16.4833 25.0668V59.0668C16.4833 67.8668 23.4167 75.0668 31.95 75.0668H32.35C40.8833 75.0668 47.8167 67.8668 47.8167 59.0668C47.8167 59.0668 47.8167 38.9335 47.8167 38.6668C47.8167 37.4668 48.75 36.5335 49.8167 36.5335C51.0167 36.5335 51.95 37.3335 51.95 38.6668C51.95 38.9335 51.95 67.0668 51.95 67.0668C51.95 71.2002 55.15 74.5335 59.15 74.5335C63.0167 74.5335 65.4167 71.8668 65.4167 68.1335V30.1335C65.4167 26.4002 63.0167 23.7335 59.15 23.7335Z" fill="#A9FB8B"/>
</svg>