<svg xmlns="http://www.w3.org/2000/svg" width="35" height="36" viewBox="0 0 35 36" fill="none">
  <path d="M17.5 31.125C24.7488 31.125 30.625 25.2488 30.625 18C30.625 10.7514 24.7488 4.875 17.5 4.875C10.2514 4.875 4.375 10.7514 4.375 18C4.375 25.2488 10.2514 31.125 17.5 31.125Z" stroke="#0B0B0B" stroke-width="2.1875" stroke-linecap="round" stroke-linejoin="round"/>
  <path d="M17.5 22.375C20.5204 22.375 22.9688 19.9266 22.9688 16.9063C22.9688 13.8859 20.5204 11.4375 17.5 11.4375C14.4796 11.4375 12.0312 13.8859 12.0312 16.9063C12.0312 19.9266 14.4796 22.375 17.5 22.375Z" stroke="#0B0B0B" stroke-width="2.1875" stroke-linecap="round" stroke-linejoin="round"/>
  <path d="M8.72266 27.7615C9.33817 26.5492 10.1981 25.4776 11.2483 24.6141C12.2985 23.7507 13.5162 23.1141 14.8246 22.7446C16.133 22.3751 17.5038 22.2806 18.8506 22.4671C20.1973 22.6536 21.4908 23.117 22.6496 23.8282C24.1988 24.7792 25.4544 26.1406 26.2773 27.7615" stroke="#0B0B0B" stroke-width="2.1875" stroke-linecap="round" stroke-linejoin="round"/>
</svg>